<svg xmlns="http://www.w3.org/2000/svg" viewBox="0 0 600 600" width="600" height="600" role="img" aria-label="laptops">
  <defs>
    <linearGradient id="bg" x1="0" y1="0" x2="1" y2="1">
      <stop offset="0%" stop-color="#0ea5e9"/>
      <stop offset="100%" stop-color="#2563eb"/>
    </linearGradient>
    <radialGradient id="glow" cx="0.3" cy="0.2" r="0.9">
      <stop offset="0%" stop-color="#ffffff" stop-opacity="0.35"/>
      <stop offset="100%" stop-color="#ffffff" stop-opacity="0"/>
    </radialGradient>
  </defs>
  <rect width="600" height="600" fill="url(#bg)"/>
  <rect width="600" height="600" fill="url(#glow)"/>
  <circle cx="491.99999999999994" cy="120" r="132" fill="#ffffff" opacity="0.07"/>
  <circle cx="96" cy="516" r="180" fill="#000000" opacity="0.05"/>
  <g transform="translate(300 300) rotate(1) scale(3.1578947368421053) translate(-50 -50)">
    <g fill="#ffffff" stroke="#ffffff" stroke-width="0" opacity="0.95">
      <g transform="translate(0 3)" opacity="0.18" fill="#000000">
        <g transform="scale(1)">
    <rect x="18" y="26" width="64" height="42" rx="3"/>
    <rect x="23" y="31" width="54" height="32" rx="2" fill-opacity="0.35"/>
    <path d="M10 70h80l-5 8H15z"/></g>
      </g>
      <g>
    <rect x="18" y="26" width="64" height="42" rx="3"/>
    <rect x="23" y="31" width="54" height="32" rx="2" fill-opacity="0.35"/>
    <path d="M10 70h80l-5 8H15z"/></g>
    </g>
  </g>
</svg>
