<svg xmlns="http://www.w3.org/2000/svg" viewBox="0 0 800 800" width="800" height="800" role="img" aria-label="amp-power-bank-20000">
  <defs>
    <linearGradient id="bg" x1="0" y1="0" x2="1" y2="1">
      <stop offset="0%" stop-color="#f59e0b"/>
      <stop offset="100%" stop-color="#ea580c"/>
    </linearGradient>
    <radialGradient id="glow" cx="0.3" cy="0.2" r="0.9">
      <stop offset="0%" stop-color="#ffffff" stop-opacity="0.35"/>
      <stop offset="100%" stop-color="#ffffff" stop-opacity="0"/>
    </radialGradient>
  </defs>
  <rect width="800" height="800" fill="url(#bg)"/>
  <rect width="800" height="800" fill="url(#glow)"/>
  <circle cx="656" cy="160" r="176" fill="#ffffff" opacity="0.07"/>
  <circle cx="128" cy="688" r="240" fill="#000000" opacity="0.05"/>
  <g transform="translate(400 400) rotate(1) scale(4.2105263157894735) translate(-50 -50)">
    <g fill="#ffffff" stroke="#ffffff" stroke-width="0" opacity="0.95">
      <g transform="translate(0 3)" opacity="0.18" fill="#000000">
        <g transform="scale(1)">
    <rect x="16" y="30" width="68" height="40" rx="5"/>
    <rect x="24" y="40" width="52" height="8" rx="2" fill-opacity="0.35"/>
    <rect x="24" y="53" width="34" height="8" rx="2" fill-opacity="0.35"/>
    <circle cx="74" cy="57" r="3.5" fill-opacity="0.6"/></g>
      </g>
      <g>
    <rect x="16" y="30" width="68" height="40" rx="5"/>
    <rect x="24" y="40" width="52" height="8" rx="2" fill-opacity="0.35"/>
    <rect x="24" y="53" width="34" height="8" rx="2" fill-opacity="0.35"/>
    <circle cx="74" cy="57" r="3.5" fill-opacity="0.6"/></g>
    </g>
  </g>
</svg>
