<svg xmlns="http://www.w3.org/2000/svg" viewBox="0 0 800 800" width="800" height="800" role="img" aria-label="zenith-smart-watch">
  <defs>
    <linearGradient id="bg" x1="0" y1="0" x2="1" y2="1">
      <stop offset="0%" stop-color="#14b8a6"/>
      <stop offset="100%" stop-color="#0d9488"/>
    </linearGradient>
    <radialGradient id="glow" cx="0.3" cy="0.2" r="0.9">
      <stop offset="0%" stop-color="#ffffff" stop-opacity="0.35"/>
      <stop offset="100%" stop-color="#ffffff" stop-opacity="0"/>
    </radialGradient>
  </defs>
  <rect width="800" height="800" fill="url(#bg)"/>
  <rect width="800" height="800" fill="url(#glow)"/>
  <circle cx="656" cy="160" r="176" fill="#ffffff" opacity="0.07"/>
  <circle cx="128" cy="688" r="240" fill="#000000" opacity="0.05"/>
  <g transform="translate(400 400) rotate(3) scale(4.2105263157894735) translate(-50 -50)">
    <g fill="#ffffff" stroke="#ffffff" stroke-width="0" opacity="0.95">
      <g transform="translate(0 3)" opacity="0.18" fill="#000000">
        <g transform="scale(1)">
    <rect x="30" y="30" width="40" height="40" rx="10"/>
    <rect x="36" y="36" width="28" height="28" rx="6" fill-opacity="0.35"/>
    <path d="M40 30V16h20v14M40 70v14h20V70" fill-opacity="0.7"/></g>
      </g>
      <g>
    <rect x="30" y="30" width="40" height="40" rx="10"/>
    <rect x="36" y="36" width="28" height="28" rx="6" fill-opacity="0.35"/>
    <path d="M40 30V16h20v14M40 70v14h20V70" fill-opacity="0.7"/></g>
    </g>
  </g>
</svg>
